# xmcd
#
# Track frame offsets:
#	150
#	19330
#	36132
#	54885
#	70465
#	86050
#	107082
#	127630
#	143992
#	160632
#
# Disc length: 2355 seconds
#
# Revision: 7
# Processed by: cddbd v1.5.2PL0 Copyright (c) Steve Scherf et al.
# Submitted via: EasyCDDAExtractor 15.3.0.1
#
DISCID=7d09310a
DTITLE=Whitney Houston - Just Whitney...
DYEAR=2002
DGENRE=Pop
TTITLE0=One Of Those Days
TTITLE1=Tell Me No
TTITLE2=Things You Say
TTITLE3=My Love (Featuring Bobby Brown)
TTITLE4=Love That Man
TTITLE5=Try It On My Own
TTITLE6=Dear John Letter
TTITLE7=Unashamed
TTITLE8=You Light Up My Life
TTITLE9=Whatchulookinat
EXTD=YEAR: 2002 ID3G: 14
EXTT0=
EXTT1=
EXTT2=
EXTT3=
EXTT4=
EXTT5=
EXTT6=
EXTT7=
EXTT8=
EXTT9=
PLAYORDER=
